# xmcd
#
# Track frame offsets:
#	150
#	15257
#	29602
#	45521
#	60767
#	76111
#	91610
#	107264
#	121956
#	135266
#
# Disc length: 1982 seconds
#
# Revision: 0
# Processed by: cddbd v1.5.2PL0 Copyright (c) Steve Scherf et al.
# Submitted via: EasyCDDAExtractor 16.0.6.1
#
DISCID=5b07bc0a
DTITLE=Κυριαζής Γιάννης - Ρεμπέτης και τζέντλεμαν-Γ. Κυριαζής
DYEAR=2008
DGENRE=Ρεμπέτικη
TTITLE0=Κυριαζής Γιάννης-Χασκίλ Στ.-Καλδάρας Απ. - Εβίβα ρεμπέτες [Απ. Καλδάρα
TTITLE0=]
TTITLE1=Κυριαζής Γιάννης-Φαλουλάκος Φ. - Η γόπα [Φ. Χαλουλάκου-Χ. Ταμβάκη]
TTITLE2=Κυριαζής Γιάννης-Ρουμελιώτης Δ. - Τι όμορφη που είσαι, όταν κλαις [Στ.
TTITLE2=Χρυσίνη-Χρ. Κολοκοτρώνη]
TTITLE3=Τσαουσάκης Πρόδρομος-Στάμου Ρ.-Καλλέργης Ν. - Θέλω βαριά να κοιμηθώ [Ι
TTITLE3=Κυριαζή]
TTITLE4=Κυριαζής Γιάννης - Η πλούσια και ο φτωχός [Χρ. και Μ. Κολοκοτρώνη]
TTITLE5=Τζουανάκος Σταύρος - Κοντά μου αγανάκτησες [Ι. Κυριαζή-Κ. Βίρβου]
TTITLE6=Γκρέϋ Καίτη - Η καμπάνα [Ι. Κυριαζή]
TTITLE7=Κυριαζής Γιάννης - Τον Περικλή χτυπήσανε [Ι. Κυριαζή]
TTITLE8=Κυριαζής Γιάννης-Θύμη Καίτη - Έφυγες κάποιο δειλινό [Ι. Κυριαζή]
TTITLE9=Κυριαζής Γιάννης - Μινόρε σμυρναίϊκο [Ι. Κυριαζή]
EXTD=
EXTT0=
EXTT1=
EXTT2=
EXTT3=
EXTT4=
EXTT5=
EXTT6=
EXTT7=
EXTT8=
EXTT9=
PLAYORDER=
